# Blender v2.93.0 OBJ File: ''
# www.blender.org
mtllib husky_lowpoly.mtl
o Cube
v 0.051354 1.407349 1.000000
v 0.030557 -0.592651 0.745732
v -1.000000 1.705338 1.098089
v -1.000000 -0.294663 0.745732
v -1.271213 0.852909 1.109015
v -0.225895 0.371317 1.109015
v 1.607953 0.894559 0.179465
v 0.214014 1.840833 0.587322
v -0.577328 2.043614 0.587322
v -0.660360 2.288796 0.380900
v -0.798827 2.484135 1.035802
v -1.082012 2.403796 0.442834
v -0.747697 2.620948 0.837701
v 0.640069 0.889333 0.554507
v 0.254806 1.890742 0.000797
v 0.271651 1.512400 0.500000
v -0.312932 2.049728 0.193249
v -1.555918 0.852909 0.554507
v -0.708654 2.088362 -0.005127
v -0.271416 2.034697 0.296459
v 0.743875 0.221698 0.703834
v -1.410159 1.800540 0.500000
v -1.320874 2.087886 0.478764
v 0.913533 0.942326 0.447021
v 1.553384 0.477411 0.179465
v 1.608733 0.893445 -0.000972
v 0.043684 -1.242565 0.660090
v -1.322025 -0.837124 0.848060
v -1.592888 -0.513513 0.005666
v -0.061750 -1.815592 0.005666
v -1.068369 2.426362 0.700181
v 0.051354 1.407349 -1.000000
v 0.030557 -0.592651 -0.745732
v -1.000000 1.705338 -1.098089
v -1.000000 -0.294663 -0.745732
v -1.451804 -0.294663 0.000000
v 0.491948 1.617451 0.000000
v -1.451804 1.895742 0.000000
v 0.557040 -0.592651 0.000000
v -1.271213 0.852909 -1.109015
v -0.225895 0.371317 -1.109015
v 1.607953 0.894559 -0.179465
v -1.840624 0.852909 0.000000
v 0.214014 1.840833 -0.587322
v -0.577328 2.043614 -0.587322
v 0.034496 2.025781 0.000000
v -0.660360 2.288796 -0.380900
v -0.798827 2.484135 -1.035802
v -1.082012 2.403796 -0.442834
v -0.747697 2.620948 -0.837701
v 0.640069 0.889333 -0.554507
v 0.254806 1.890742 -0.000797
v 0.271651 1.512400 -0.500000
v -0.312932 2.049728 -0.193249
v -1.555918 0.852909 -0.554507
v -0.708654 2.088362 0.005127
v -0.271416 2.034697 -0.296459
v 0.839473 1.223047 0.000000
v 0.743875 0.221698 -0.703834
v -1.410159 1.800540 -0.500000
v -1.320874 2.087886 -0.478764
v 0.913533 0.942326 -0.447021
v 1.553384 0.477411 -0.179465
v 0.880242 0.169270 0.000000
v 1.608733 0.893445 0.000972
v 1.588214 0.455169 0.000000
v 0.043684 -1.242565 -0.660090
v -1.322025 -0.837124 -0.848060
v -1.592888 -0.513513 -0.005666
v -0.061750 -1.815592 -0.005666
v -1.068369 2.426362 -0.700181
vt 0.625000 0.750000
vt 0.625000 1.000000
vt 0.506971 1.000000
vt 0.506971 0.750000
vt 0.000000 0.000000
vt 0.000000 0.000000
vt 0.000000 0.000000
vt 0.000000 0.000000
vt 0.625000 0.750000
vt 0.000000 0.000000
vt 0.625000 0.625000
vt 0.625000 0.875000
vt 0.625000 1.000000
vt 0.000000 0.000000
vt 0.625000 1.000000
vt 0.506971 0.000000
vt 0.375000 0.125000
vt 0.375000 0.000000
vt 0.375000 0.625000
vt 0.375000 0.750000
vt 0.375000 1.000000
vt 0.375000 0.125000
vt 0.375000 0.000000
vt 0.625000 0.125000
vt 0.000000 0.000000
vt 0.625000 0.750000
vt 0.625000 0.875000
vt 0.506971 0.062500
vt 0.506971 0.125000
vt 0.506971 0.687500
vt 0.625000 0.125000
vt 0.625000 1.000000
vt 0.000000 0.000000
vt 0.000000 0.000000
vt 0.625000 1.000000
vt 0.000000 0.000000
vt 0.000000 0.000000
vt 0.000000 0.000000
vt 0.253486 0.312500
vt 0.000000 0.000000
vt 0.625000 0.062500
vt 0.625000 0.000000
vt 0.625000 0.000000
vt 0.506971 0.625000
vt 0.000000 0.000000
vt 0.000000 0.000000
vt 0.000000 0.000000
vt 0.000000 0.000000
vt 0.375000 0.625000
vt 0.125000 0.750000
vt 0.125000 0.625000
vt 0.375000 0.750000
vt 0.375000 1.000000
vt 0.625000 0.750000
vt 0.506971 1.000000
vt 0.625000 1.000000
vt 0.506971 0.750000
vt 0.000000 0.000000
vt 0.000000 0.000000
vt 0.625000 0.750000
vt 0.000000 0.000000
vt 0.625000 0.875000
vt 0.000000 0.000000
vt 0.625000 1.000000
vt 0.625000 1.000000
vt 0.506971 0.000000
vt 0.375000 0.000000
vt 0.375000 0.750000
vt 0.375000 1.000000
vt 0.375000 0.000000
vt 0.375000 0.125000
vt 0.000000 0.000000
vt 0.625000 0.875000
vt 0.506971 0.062500
vt 0.506971 0.687500
vt 0.625000 1.000000
vt 0.625000 0.125000
vt 0.000000 0.000000
vt 0.000000 0.000000
vt 0.000000 0.000000
vt 0.625000 1.000000
vt 0.000000 0.000000
vt 0.253486 0.312500
vt 0.625000 0.062500
vt 0.625000 0.000000
vt 0.625000 0.000000
vt 0.506971 0.625000
vt 0.000000 0.000000
vt 0.000000 0.000000
vt 0.375000 0.625000
vt 0.125000 0.625000
vt 0.125000 0.750000
vt 0.375000 0.750000
vt 0.375000 1.000000
vn 0.0886 -0.0154 0.9960
vn 0.0429 0.0932 0.9947
vn -0.0029 -0.0063 -1.0000
vn 0.9100 0.0503 0.4115
vn 0.5308 0.8426 -0.0908
vn 0.1894 0.7392 0.6463
vn -0.8031 -0.3438 0.4866
vn 0.8169 -0.0000 0.5767
vn -0.1086 -0.3757 0.9203
vn -0.7381 0.5114 0.4401
vn -0.2298 0.8752 -0.4257
vn 0.2427 0.9439 0.2241
vn 0.2450 0.6187 0.7465
vn -0.8517 -0.2886 0.4373
vn 0.1975 -0.6666 0.7188
vn -0.1524 -0.3308 0.9313
vn 0.1389 0.8134 -0.5649
vn 0.5192 0.8477 0.1083
vn -0.7809 0.1942 0.5937
vn 0.8107 -0.1645 0.5619
vn -0.5910 0.7270 0.3495
vn 0.9547 0.2959 -0.0326
vn 0.9340 0.1316 0.3320
vn -0.7987 0.6013 -0.0229
vn 0.0586 0.6314 -0.7733
vn 0.7511 0.6514 0.1077
vn 0.7575 0.4860 0.4359
vn 0.5653 -0.0648 0.8223
vn 0.6240 0.5498 0.5553
vn 0.4061 0.2591 0.8763
vn 0.3152 0.8255 -0.4681
vn 0.0837 0.9961 0.0270
vn 0.5380 0.6420 0.5462
vn 0.1211 0.9881 0.0952
vn 0.0423 0.8492 0.5263
vn 0.3110 0.2532 0.9161
vn -0.9274 0.3458 0.1431
vn -0.8780 0.1610 0.4508
vn -0.7781 0.2549 0.5742
vn -0.7802 0.2475 0.5745
vn -0.7922 0.2860 0.5390
vn -0.9432 0.3031 0.1363
vn 0.2450 0.8388 0.4862
vn 0.3635 0.2356 0.9013
vn 0.3805 -0.9138 0.1418
vn 0.5584 -0.0730 0.8264
vn 0.9014 -0.3824 0.2031
vn 0.3938 0.9192 -0.0040
vn 0.3680 -0.9114 0.1844
vn 0.9707 -0.1270 0.2041
vn 0.9989 -0.0468 0.0046
vn -0.6455 -0.7591 -0.0840
vn -0.1270 -0.7360 0.6649
vn 0.8660 -0.4370 0.2432
vn 0.0978 -0.1281 0.9869
vn 0.8155 -0.0594 0.5757
vn 0.0459 0.1588 0.9862
vn -0.7982 0.6023 -0.0105
vn -0.5027 0.8631 -0.0490
vn 0.0886 -0.0154 -0.9960
vn 0.0429 0.0932 -0.9947
vn -0.0029 -0.0063 1.0000
vn 0.9100 0.0503 -0.4115
vn 0.5308 0.8426 0.0908
vn 0.1894 0.7392 -0.6463
vn -0.8031 -0.3438 -0.4866
vn 0.8169 -0.0000 -0.5767
vn -0.1086 -0.3757 -0.9203
vn -0.7381 0.5114 -0.4401
vn -0.2298 0.8752 0.4257
vn 0.2427 0.9439 -0.2241
vn 0.2450 0.6187 -0.7465
vn -0.8517 -0.2886 -0.4373
vn 0.1975 -0.6666 -0.7188
vn -0.1524 -0.3308 -0.9313
vn 0.1389 0.8134 0.5649
vn 0.5192 0.8477 -0.1083
vn -0.7809 0.1942 -0.5937
vn 0.8107 -0.1645 -0.5619
vn -0.5910 0.7270 -0.3495
vn 0.9547 0.2959 0.0326
vn 0.9340 0.1316 -0.3320
vn -0.7987 0.6013 0.0229
vn 0.0586 0.6314 0.7733
vn 0.7511 0.6514 -0.1077
vn 0.7575 0.4860 -0.4359
vn 0.5653 -0.0648 -0.8223
vn 0.6240 0.5498 -0.5553
vn 0.4061 0.2591 -0.8763
vn 0.3152 0.8255 0.4681
vn 0.0837 0.9961 -0.0270
vn 0.5380 0.6420 -0.5462
vn 0.1211 0.9881 -0.0952
vn 0.0423 0.8492 -0.5263
vn 0.3110 0.2532 -0.9161
vn -0.9274 0.3458 -0.1431
vn -0.8780 0.1610 -0.4508
vn -0.7781 0.2549 -0.5742
vn -0.7802 0.2475 -0.5745
vn -0.7922 0.2860 -0.5390
vn -0.9432 0.3031 -0.1363
vn 0.2450 0.8388 -0.4862
vn 0.3635 0.2356 -0.9013
vn 0.3805 -0.9138 -0.1418
vn 0.5584 -0.0730 -0.8264
vn 0.9014 -0.3824 -0.2031
vn 0.3938 0.9192 0.0040
vn 0.3680 -0.9114 -0.1844
vn 0.9707 -0.1270 -0.2041
vn 0.9989 -0.0468 -0.0046
vn -0.6455 -0.7591 0.0840
vn -0.1270 -0.7360 -0.6649
vn 0.8660 -0.4370 -0.2432
vn 0.0978 -0.1281 -0.9869
vn 0.8155 -0.0594 -0.5757
vn 0.0459 0.1588 -0.9862
vn -0.7982 0.6023 0.0105
vn -0.5027 0.8631 0.0490
usemtl Material
s off
f 1/1/1 3/2/1 5/3/1
f 1/1/2 5/3/2 6/4/2
f 36/5/3 39/6/3 30/7/3 29/8/3
f 8/9/4 16/10/4 37/11/4
f 17/12/5 10/13/5 20/14/5
f 3/2/6 8/9/6 9/15/6
f 5/16/7 36/17/7 4/18/7
f 39/19/8 6/4/8 2/20/8
f 6/4/9 4/21/9 2/20/9
f 4/18/10 36/17/10 29/22/10 28/23/10
f 38/24/11 10/13/11 19/25/11
f 9/15/12 8/9/12 46/26/12 20/27/12
f 3/2/13 1/1/13 8/9/13
f 5/16/14 18/28/14 43/29/14 36/17/14
f 6/4/15 39/19/15 21/30/15
f 6/4/16 5/3/16 4/21/16
f 10/13/17 12/31/17 13/32/17
f 1/1/4 16/10/4 8/9/4
f 46/26/18 8/9/18 15/33/18
f 23/34/19 11/35/19 31/36/19
f 9/15/20 11/35/20 3/2/20
f 11/35/21 13/32/21 31/36/21
f 9/15/22 10/13/22 13/32/22
f 9/15/23 13/32/23 11/35/23
f 38/24/24 23/34/24 12/31/24
f 12/31/25 10/13/25 38/24/25
f 37/11/26 15/33/26 8/9/26
f 14/37/27 37/11/27 16/10/27
f 16/10/27 1/1/27 14/37/27
f 1/1/28 6/4/28 14/37/28
f 14/37/29 58/38/29 37/11/29
f 6/4/30 21/30/30 14/37/30
f 10/13/31 17/12/31 19/25/31
f 17/12/32 46/26/32 19/25/32
f 9/15/33 20/27/33 10/13/33
f 17/12/34 20/14/34 46/26/34
f 14/37/35 24/39/35 58/38/35
f 14/37/36 21/30/36 24/39/36
f 38/24/37 43/40/37 22/41/37
f 43/40/38 18/28/38 22/41/38
f 18/28/38 5/16/38 22/41/38
f 3/42/39 22/41/39 5/16/39
f 11/43/40 22/41/40 3/42/40
f 11/35/41 23/34/41 22/41/41
f 38/24/42 22/41/42 23/34/42
f 58/38/43 24/39/43 7/44/43
f 21/30/44 7/44/44 24/39/44
f 21/30/45 64/45/45 25/46/45
f 21/30/46 25/46/46 7/44/46
f 64/45/47 21/30/47 39/19/47
f 7/44/48 26/47/48 58/38/48
f 64/45/49 66/48/49 25/46/49
f 25/46/50 66/48/50 7/44/50
f 26/47/51 7/44/51 66/48/51
f 30/49/52 28/50/52 29/51/52
f 30/49/53 27/52/53 28/50/53
f 39/19/54 27/52/54 30/49/54
f 2/20/55 28/53/55 27/52/55
f 39/19/56 2/20/56 27/52/56
f 2/20/57 4/21/57 28/53/57
f 31/36/58 12/31/58 23/34/58
f 31/36/59 13/32/59 12/31/59
f 32/54/60 40/55/60 34/56/60
f 32/54/61 41/57/61 40/55/61
f 36/5/62 69/58/62 70/59/62 39/6/62
f 44/60/63 37/11/63 53/61/63
f 54/62/64 57/63/64 47/64/64
f 34/56/65 45/65/65 44/60/65
f 40/66/66 35/67/66 36/17/66
f 39/19/67 33/68/67 41/57/67
f 41/57/68 33/68/68 35/69/68
f 35/67/69 68/70/69 69/71/69 36/17/69
f 38/24/70 56/72/70 47/64/70
f 45/65/71 57/73/71 46/26/71 44/60/71
f 34/56/72 44/60/72 32/54/72
f 40/66/73 36/17/73 43/29/73 55/74/73
f 41/57/74 59/75/74 39/19/74
f 41/57/75 35/69/75 40/55/75
f 47/64/76 50/76/76 49/77/76
f 32/54/63 44/60/63 53/61/63
f 46/26/77 52/78/77 44/60/77
f 61/79/78 71/80/78 48/81/78
f 45/65/79 34/56/79 48/81/79
f 48/81/80 71/80/80 50/76/80
f 45/65/81 50/76/81 47/64/81
f 45/65/82 48/81/82 50/76/82
f 38/24/83 49/77/83 61/79/83
f 49/77/84 38/24/84 47/64/84
f 37/11/85 44/60/85 52/78/85
f 51/82/86 53/61/86 37/11/86
f 53/61/86 51/82/86 32/54/86
f 32/54/87 51/82/87 41/57/87
f 51/82/88 37/11/88 58/38/88
f 41/57/89 51/82/89 59/75/89
f 47/64/90 56/72/90 54/62/90
f 54/62/91 56/72/91 46/26/91
f 45/65/92 47/64/92 57/73/92
f 54/62/93 46/26/93 57/63/93
f 51/82/94 58/38/94 62/83/94
f 51/82/95 62/83/95 59/75/95
f 38/24/96 60/84/96 43/40/96
f 43/40/97 60/84/97 55/74/97
f 55/74/97 60/84/97 40/66/97
f 34/85/98 40/66/98 60/84/98
f 48/86/99 34/85/99 60/84/99
f 48/81/100 60/84/100 61/79/100
f 38/24/101 61/79/101 60/84/101
f 58/38/102 42/87/102 62/83/102
f 59/75/103 62/83/103 42/87/103
f 59/75/104 63/88/104 64/45/104
f 59/75/105 42/87/105 63/88/105
f 64/45/106 39/19/106 59/75/106
f 42/87/107 58/38/107 65/89/107
f 64/45/108 63/88/108 66/48/108
f 63/88/109 42/87/109 66/48/109
f 65/89/110 66/48/110 42/87/110
f 70/90/111 69/91/111 68/92/111
f 70/90/112 68/92/112 67/93/112
f 39/19/113 70/90/113 67/93/113
f 33/68/114 67/93/114 68/94/114
f 39/19/115 67/93/115 33/68/115
f 33/68/116 68/94/116 35/69/116
f 71/80/117 61/79/117 49/77/117
f 71/80/118 49/77/118 50/76/118
